<svg xmlns="http://www.w3.org/2000/svg" viewBox="0 0 577 131">
  <path d="M 140.00,53.00 L 132.00,53.25 L 131.75,54.50 L 131.00,55.25 L 131.00,56.25 L 130.00,57.75 L 130.00,58.50 L 128.00,62.75 L 128.00,63.50 L 126.00,67.25 L 126.00,68.25 L 125.00,69.75 L 124.75,71.25 L 123.25,74.00 L 122.00,77.75 L 121.00,79.25 L 121.00,80.25 L 120.00,81.75 L 119.75,83.25 L 118.25,86.00 L 118.00,87.50 L 117.25,88.25 L 116.00,87.00 L 114.75,83.25 L 114.00,82.25 L 113.75,80.75 L 112.75,79.25 L 112.75,78.25 L 111.75,76.75 L 110.50,73.00 L 109.75,72.00 L 109.75,71.00 L 108.00,67.75 L 107.75,66.25 L 106.75,64.75 L 106.75,64.00 L 105.00,60.50 L 104.75,59.00 L 103.75,57.50 L 103.75,56.50 L 102.75,55.00 L 102.25,53.25 L 93.75,53.25 L 95.00,57.00 L 96.00,58.75 L 96.00,59.50 L 97.00,61.00 L 98.00,64.25 L 100.00,68.25 L 100.25,69.75 L 101.00,70.75 L 101.00,71.50 L 101.75,72.50 L 103.00,76.25 L 104.00,77.75 L 104.00,78.75 L 105.00,80.25 L 106.00,83.50 L 108.00,87.50 L 108.25,89.00 L 109.75,91.75 L 110.00,93.25 L 111.00,94.75 L 112.00,98.00 L 112.75,99.00 L 112.00,101.50 L 108.00,109.75 L 107.00,113.00 L 106.00,114.50 L 104.75,118.00 L 104.00,118.75 L 104.25,119.75 L 112.00,119.75 L 112.75,119.00 L 113.75,115.75 L 114.50,114.75 L 114.75,113.25 L 115.75,111.75 L 115.75,111.00 L 118.75,104.75 L 118.75,103.75 L 119.75,102.50 L 120.00,101.00 L 121.75,97.75 L 121.75,96.75 L 122.75,95.25 L 123.75,92.00 L 124.50,91.00 L 124.75,89.75 L 126.75,85.75 L 126.75,85.00 L 127.75,83.50 L 127.75,82.75 L 129.75,78.75 L 129.75,78.00 L 130.75,76.50 L 131.00,75.00 L 133.50,69.75 L 134.75,66.00 L 135.75,64.50 L 135.75,63.75 L 137.75,59.75 L 137.75,59.00 L 138.75,57.50 L 138.75,56.50 L 140.25,53.75 Z M 13.50,53.50 L 13.50,101.50 L 21.50,101.50 L 21.75,65.50 L 25.50,62.75 L 28.00,61.75 L 29.25,60.75 L 30.25,60.75 L 32.75,59.75 L 39.00,60.00 L 41.25,61.00 L 43.00,62.75 L 44.00,64.50 L 44.00,65.75 L 44.75,68.00 L 44.75,101.25 L 45.25,101.75 L 52.75,101.50 L 52.50,66.25 L 53.75,64.75 L 57.50,62.75 L 58.50,61.75 L 59.25,61.75 L 62.75,60.00 L 64.25,59.75 L 70.00,60.00 L 72.50,61.00 L 75.00,63.75 L 75.00,64.75 L 76.00,67.50 L 76.25,72.00 L 76.00,101.00 L 76.25,101.50 L 83.75,101.75 L 84.25,101.25 L 84.25,71.25 L 83.75,64.25 L 82.75,61.75 L 82.75,60.75 L 81.50,58.25 L 79.75,56.00 L 77.75,54.25 L 75.50,53.00 L 74.50,53.00 L 72.75,52.25 L 65.75,52.00 L 59.00,54.00 L 51.25,59.25 L 46.00,54.00 L 41.50,52.25 L 34.75,52.00 L 30.50,53.00 L 22.00,57.75 L 21.25,53.00 L 14.00,53.00 Z M 400.00,14.25 L 400.00,101.50 L 417.75,101.50 L 418.00,27.75 L 418.50,27.50 L 429.00,27.50 L 435.75,28.00 L 437.50,28.75 L 438.75,28.75 L 442.50,30.75 L 446.00,34.25 L 447.00,37.00 L 447.25,39.75 L 447.00,44.25 L 446.00,47.50 L 442.25,52.00 L 439.00,53.75 L 434.50,55.00 L 429.25,55.25 L 429.00,67.50 L 432.00,70.50 L 433.00,72.25 L 440.00,80.50 L 441.00,82.25 L 444.00,85.50 L 445.00,87.25 L 452.00,95.50 L 452.00,96.00 L 455.00,99.25 L 456.50,101.50 L 496.50,101.75 L 497.00,101.25 L 500.00,92.25 L 501.75,88.50 L 501.75,87.00 L 502.50,86.00 L 502.75,84.25 L 504.75,80.75 L 506.00,76.25 L 508.50,70.00 L 508.75,67.00 L 509.75,65.25 L 510.00,63.75 L 510.75,62.50 L 510.75,61.50 L 513.50,55.00 L 513.75,53.25 L 514.75,51.50 L 514.75,50.50 L 515.75,48.75 L 515.75,47.75 L 516.50,46.50 L 517.75,42.25 L 518.75,40.50 L 520.50,34.75 L 521.50,33.75 L 522.00,34.25 L 522.00,35.50 L 523.00,37.00 L 525.25,44.25 L 526.00,45.25 L 526.25,47.00 L 527.00,48.00 L 528.00,52.00 L 528.75,53.00 L 529.25,55.25 L 530.00,56.25 L 530.00,57.50 L 531.00,59.00 L 531.00,60.00 L 531.75,61.25 L 532.25,63.50 L 534.00,67.00 L 534.25,69.75 L 535.00,71.00 L 539.00,83.00 L 539.75,84.00 L 540.00,85.75 L 541.00,87.50 L 541.25,89.50 L 542.00,90.75 L 542.25,92.25 L 543.00,93.25 L 543.00,94.50 L 544.00,96.00 L 545.75,101.25 L 546.25,101.75 L 564.50,101.50 L 563.75,99.25 L 563.00,98.25 L 561.75,94.00 L 560.75,92.50 L 560.75,91.25 L 560.00,90.25 L 558.75,86.00 L 557.75,84.50 L 557.75,83.25 L 556.75,81.75 L 555.75,78.25 L 555.00,77.25 L 554.75,75.50 L 553.75,74.00 L 553.50,72.25 L 552.75,71.50 L 552.75,70.00 L 550.75,66.00 L 550.50,64.25 L 549.75,63.50 L 549.75,62.25 L 549.00,61.25 L 547.75,57.00 L 546.75,55.50 L 546.75,54.50 L 545.75,52.75 L 545.50,51.25 L 544.75,50.25 L 544.75,49.25 L 543.75,47.75 L 543.75,46.50 L 542.00,43.00 L 541.75,41.25 L 541.00,40.25 L 539.75,36.00 L 538.75,34.50 L 538.75,33.25 L 537.75,31.75 L 536.75,28.25 L 535.75,26.50 L 534.75,23.00 L 533.75,21.50 L 533.75,20.25 L 533.00,19.25 L 532.50,17.00 L 531.25,14.25 L 512.25,14.00 L 511.50,14.50 L 510.00,19.00 L 509.25,20.00 L 509.00,21.50 L 507.25,25.25 L 506.75,27.50 L 506.00,28.50 L 506.00,29.50 L 505.00,31.25 L 504.00,34.75 L 503.00,36.50 L 502.75,38.00 L 502.25,38.50 L 502.00,40.00 L 500.00,44.25 L 500.00,45.25 L 499.00,47.00 L 499.00,48.00 L 496.00,54.75 L 496.00,55.75 L 495.00,57.50 L 493.75,61.75 L 492.00,65.50 L 492.00,66.50 L 491.00,68.00 L 491.00,69.00 L 489.00,73.25 L 487.75,77.50 L 487.00,78.50 L 487.00,79.50 L 485.00,83.75 L 485.00,84.75 L 484.25,85.75 L 483.75,88.00 L 482.00,91.75 L 480.75,95.75 L 480.25,96.25 L 480.00,98.00 L 479.25,99.00 L 479.00,100.25 L 478.25,100.75 L 476.00,98.50 L 474.75,96.50 L 471.00,92.50 L 469.75,90.50 L 468.75,89.75 L 464.75,84.50 L 461.00,80.50 L 459.75,78.50 L 447.75,64.50 L 448.25,63.25 L 451.75,61.75 L 454.75,59.75 L 459.75,55.00 L 461.50,52.50 L 463.75,47.75 L 464.75,44.25 L 465.25,39.75 L 464.75,31.75 L 463.50,28.00 L 460.75,23.50 L 457.25,20.25 L 451.75,17.00 L 450.75,17.00 L 448.75,16.00 L 444.75,15.00 L 442.75,15.00 L 440.50,14.25 Z M 308.00,14.25 L 308.00,27.75 L 337.00,27.75 L 338.50,28.75 L 338.50,101.25 L 339.00,101.75 L 356.00,101.75 L 356.50,101.25 L 356.50,28.50 L 357.50,27.75 L 386.25,28.00 L 386.75,27.75 L 387.00,14.50 L 386.50,14.00 Z M 256.00,14.00 L 255.50,14.50 L 255.50,101.25 L 256.00,101.75 L 314.75,101.75 L 315.25,101.25 L 315.25,88.25 L 314.25,87.50 L 274.50,87.75 L 273.75,87.00 L 273.75,14.75 L 273.50,14.25 Z M 190.25,12.00 L 181.75,13.50 L 175.50,15.75 L 171.00,18.00 L 164.25,22.75 L 158.75,28.25 L 154.00,35.00 L 151.75,39.50 L 149.50,45.75 L 148.00,54.25 L 148.00,61.75 L 149.50,70.25 L 151.75,76.50 L 154.00,81.00 L 158.75,87.75 L 164.25,93.25 L 171.00,98.00 L 175.50,100.25 L 181.75,102.50 L 190.25,104.00 L 197.75,104.00 L 206.25,102.50 L 212.50,100.25 L 217.00,98.00 L 223.75,93.25 L 229.25,87.75 L 234.00,81.00 L 236.25,76.50 L 238.50,70.25 L 240.00,61.75 L 240.00,54.25 L 238.50,45.75 L 236.25,39.50 L 234.00,35.00 L 229.25,28.25 L 223.75,22.75 L 217.00,18.00 L 212.50,15.75 L 206.25,13.50 L 197.75,12.00 Z M 191.25,30.75 L 196.75,30.75 L 201.75,31.75 L 208.00,34.50 L 211.50,37.00 L 215.00,40.50 L 217.50,44.00 L 219.75,48.75 L 221.25,55.25 L 221.25,60.75 L 220.25,65.75 L 217.50,72.00 L 215.00,75.50 L 211.50,79.00 L 208.00,81.50 L 203.25,83.75 L 196.75,85.25 L 191.25,85.25 L 186.25,84.25 L 180.00,81.50 L 176.50,79.00 L 173.00,75.50 L 170.50,72.00 L 168.25,67.25 L 166.75,60.75 L 166.75,55.25 L 167.75,50.25 L 170.50,44.00 L 173.00,40.50 L 176.50,37.00 L 180.00,34.50 L 184.75,32.25 Z" fill="#ffffff" fill-rule="evenodd"/>
</svg>