<svg xmlns="http://www.w3.org/2000/svg" width="3053" height="840" viewBox="0 0 3053 840">
  <g fill="#FFFFFF">
    <path d="M119 0H330V637C330 804 440 892 563 892C683 892 770 812 770 691V0H978V660C978 795 1065 892 1206 892C1320 892 1418 828 1418 677V0H1630V695C1630 949 1474 1077 1278 1077C1122 1077 1000 996 943 882C899 995 783 1077 639 1077C508 1077 389 1009 324 879V1056H119Z" transform="translate(140.00,588.00) scale(0.244141,-0.244141)" />
    <path d="M133 -418H267C410 -418 514 -338 573 -185L1053 1056H830L622 477C594 398 567 319 541 240C515 319 489 398 461 477L250 1056H24L432 7L384 -118C352 -204 313 -240 247 -240H133Z" transform="translate(559.00,588.00) scale(0.244141,-0.244141)" />
    <path d="M766 -24C1163 -24 1452 288 1452 744C1452 1202 1163 1514 766 1514C369 1514 81 1202 81 744C81 289 369 -24 766 -24ZM766 179C509 179 304 381 304 744C304 1109 509 1311 766 1311C1023 1311 1229 1109 1229 744C1229 381 1023 179 766 179Z" transform="translate(847.94,588.00) scale(0.302734,-0.302734)" />
    <path d="M136 0H1063V195H358V1490H136Z" transform="translate(1330.03,588.00) scale(0.302734,-0.302734)" />
    <path d="M48 1295H523V0H746V1295H1219V1490H48Z" transform="translate(1684.37,588.00) scale(0.302734,-0.302734)" />
    <path d="M136 0H358V564H688C691 564 695 564 698 564L995 0H1245L923 601C1109 668 1222 818 1222 1026C1222 1311 1022 1490 703 1490H136ZM358 753V1298H693C885 1298 1003 1194 1003 1026C1003 858 886 753 694 753Z" transform="translate(2083.94,588.00) scale(0.302734,-0.302734)" />
    <path d="M16 0H252L388 387H989L1121 0H1362L825 1490H557ZM455 576 548 840C589 963 632 1094 692 1287C751 1094 793 963 834 840L924 576Z" transform="translate(2495.61,588.00) scale(0.302734,-0.302734)" />
  </g>
</svg>